<mxfile host="app.diagrams.net" modified="2023-06-01T15:23:16.457Z" agent="Mozilla/5.0 (Windows NT 10.0; Win64; x64) AppleWebKit/537.36 (KHTML, like Gecko) Chrome/113.0.0.0 Safari/537.36" version="21.2.9" etag="c3GIcSEEcNc61qqYf4Aw" type="github">
  <diagram name="Page-1" id="guRTanHvGvenB0OxOZgT">
    <mxGraphModel>
      <root>
        <mxCell id="0" />
        <mxCell id="1" parent="0" />
      </root>
    </mxGraphModel>
  </diagram>
</mxfile>
